/vscmnt/brussel_pixiu_data/_data_brussel/112/vsc11236/PredSimResults/SUBJ04mtu3D/weighted-trackIG/worker_03.mot
version=1
nRows=7
nColumns=50
inDegrees=yes
endheader
                time	         pelvis_tilt	         pelvis_list	     pelvis_rotation	           pelvis_tx	           pelvis_ty	           pelvis_tz	       hip_flexion_r	     hip_adduction_r	      hip_rotation_r	        knee_angle_r	       ankle_angle_r	         mtp_angle_r	       hip_flexion_l	     hip_adduction_l	      hip_rotation_l	        knee_angle_l	       ankle_angle_l	         mtp_angle_l	    lumbar_extension	      lumbar_bending	     lumbar_rotation	 ercspn_r/activation	 intobl_r/activation	 extobl_r/activation	    abd_r/activation	    add_r/activation	hamstrings_r/activation	bifemsh_r/activation	glut_max_r/activation	iliopsoas_r/activation	rect_fem_r/activation	  vasti_r/activation	gastroc_r/activation	 soleus_r/activation	tib_ant_r/activation	 ercspn_l/activation	 intobl_l/activation	 extobl_l/activation	    abd_l/activation	    add_l/activation	hamstrings_l/activation	bifemsh_l/activation	glut_max_l/activation	iliopsoas_l/activation	rect_fem_l/activation	  vasti_l/activation	gastroc_l/activation	 soleus_l/activation	tib_ant_l/activation	
          0.00000000	         -5.79786135	         -4.92982947	         12.46855585	          0.00000000	          0.88387992	         -0.02266188	         24.88202112	          0.32767101	         -5.19693018	          2.20127361	          5.36061841	          0.21370529	         -7.61670108	         -4.29683074	         15.81598960	         -7.87118699	         12.94575239	         21.61061291	         -2.49176817	          1.70835302	         -1.07835576	          0.09458831	          0.15536204	          0.02245835	          0.02716812	          0.10288612	          0.02493518	          0.01000355	          0.01000007	          0.06076844	          0.01485161	          0.02405920	          0.01000009	          0.01000006	          0.26680951	          0.02866549	          0.01000005	          0.01000007	          0.09481755	          0.01000035	          0.01986246	          0.14582769	          0.07674104	          0.34059047	          0.01000047	          0.01000009	          0.31365737	          0.27624967	          0.01526170	
          0.01412299	         -5.92234180	         -4.81442250	         12.36591258	          0.01465720	          0.88192841	         -0.02155438	         24.57568856	          0.58548552	         -4.02574676	          1.56124803	          5.02004347	          0.21940006	         -7.85935675	         -4.16893051	         15.02770853	         -9.11111853	         12.83292585	         23.23088779	         -2.20660007	          1.99793780	         -1.32632657	          0.07656630	          0.15164403	          0.01817927	          0.02199171	          0.13154384	          0.02357123	          0.01000220	          0.01000133	          0.04918997	          0.01202364	          0.01947533	          0.01528664	          0.01562751	          0.26739041	          0.05313840	          0.01000008	          0.01000015	          0.07675155	          0.01939470	          0.01693757	          0.11804263	          0.06702231	          0.30961552	          0.01000067	          0.01000015	          0.29310769	          0.27484899	          0.01235383	
          0.02824599	         -6.02974317	         -4.68848851	         12.19709385	          0.02971767	          0.88011999	         -0.02034688	         24.13013759	          0.85101674	         -2.89830703	          0.90206556	          4.63498322	          0.21182254	         -8.04674112	         -4.01232691	         14.18207697	        -10.54297191	         12.60409317	         24.91280997	         -1.90377659	          2.29887626	         -1.56747741	          0.06627491	          0.16434444	          0.01471551	          0.02305345	          0.10648046	          0.02901706	          0.04386066	          0.02151463	          0.03981760	          0.01000024	          0.01576468	          0.01237406	          0.01264996	          0.30190253	          0.07257237	          0.01000004	          0.01000013	          0.06212774	          0.03683455	          0.01454828	          0.09555155	          0.05425241	          0.27243631	          0.01000067	          0.01000014	          0.26804417	          0.26649649	          0.01000003	
          0.04236898	         -6.12084170	         -4.56003304	         11.95070612	          0.04498113	          0.87866829	         -0.01903071	         23.56019804	          1.13421601	         -1.84077769	          0.46221680	          4.10856167	          0.19913520	         -8.11533038	         -3.82478060	         13.28501512	        -12.24279577	         12.20198082	         26.64872579	         -1.60314156	          2.62266610	         -1.79930823	          0.07004439	          0.14842101	          0.01191173	          0.04661078	          0.08619337	          0.03014157	          0.03550427	          0.03325021	          0.03223098	          0.01000041	          0.01276161	          0.01001648	          0.01023976	          0.32800728	          0.09637725	          0.01000004	          0.01000012	          0.05029027	          0.03738901	          0.01440115	          0.07734579	          0.04391549	          0.22954951	          0.01000162	          0.01000038	          0.23543342	          0.24985288	          0.01000002	
          0.05649198	         -6.19555556	         -4.42928166	         11.62564914	          0.06029533	          0.87775723	         -0.01762227	         22.91949195	          1.43488267	         -0.86084318	          0.11279718	          3.62902745	          0.18476715	         -8.03055618	         -3.60421588	         12.32765940	        -14.23427727	         11.56348098	         28.40480553	         -1.31632947	          2.97072144	         -2.01932907	          0.06660512	          0.12290721	          0.01000008	          0.06606167	          0.07090837	          0.03423611	          0.02874001	          0.03893721	          0.02608988	          0.01000037	          0.01883322	          0.01000030	          0.01000020	          0.35077070	          0.11441089	          0.01000004	          0.01000013	          0.04070824	          0.03809604	          0.01561675	          0.06260890	          0.03554809	          0.19886039	          0.01000106	          0.01000029	          0.19057524	          0.22215943	          0.01000002	
          0.07061497	         -6.25376682	         -4.29316442	         11.22616419	          0.07556115	          0.87746430	         -0.01613989	         22.22771847	          1.74350985	          0.04185353	         -0.19172171	          3.26741842	          0.17135877	         -7.77739964	         -3.35112028	         11.29767027	        -16.51697680	         10.67325697	         30.08475928	         -1.04892077	          3.33596147	         -2.22341537	          0.06074430	          0.09948931	          0.01000010	          0.08661365	          0.06834883	          0.03838008	          0.02326466	          0.03556631	          0.02111887	          0.01000030	          0.02508615	          0.01000036	          0.01000024	          0.36184888	          0.12693714	          0.01000004	          0.01000014	          0.03295192	          0.04626589	          0.02033216	          0.05067999	          0.02877496	          0.17839133	          0.01000047	          0.01000018	          0.15426407	          0.17983043	          0.01000002	
          0.08473797	         -6.29555230	         -4.14597429	         10.75839030	          0.09068497	          0.87777523	         -0.01460446	         21.49296570	          2.04549055	          0.87183308	         -0.46360976	          3.04815817	          0.16069621	         -7.34364577	         -3.06559623	         10.17846531	        -19.09169167	          9.56726059	         31.52532125	         -0.80776271	          3.70819069	         -2.40851206	          0.05132971	          0.08053325	          0.01000009	          0.10552003	          0.06634907	          0.04087266	          0.01883271	          0.02975416	          0.01709501	          0.01000025	          0.02832632	          0.01000049	          0.01000035	          0.36002406	          0.13754699	          0.01000005	          0.01000018	          0.02667344	          0.05944048	          0.02566258	          0.04102449	          0.02329234	          0.16050411	          0.01000020	          0.01000007	          0.12487143	          0.14556652	          0.01000003	
